HIERARCHY
ROOT Hips
{
 OFFSET 0.000000 0.000000 0.000000
 CHANNELS 6 Xposition Yposition Zposition Yrotation Xrotation Zrotation
 JOINT Chest
 {
  OFFSET 0.000000 9.585900 0.002600
  CHANNELS 3 Yrotation Xrotation Zrotation
  JOINT Chest2
  {
   OFFSET 0.000000 9.601200 -0.005300
   CHANNELS 3 Yrotation Xrotation Zrotation
   JOINT Chest3
   {
    OFFSET 0.000000 9.561800 0.000000
    CHANNELS 3 Yrotation Xrotation Zrotation
    JOINT Chest4
    {
     OFFSET 0.000000 9.552100 0.000000
     CHANNELS 3 Yrotation Xrotation Zrotation
     JOINT Neck
     {
      OFFSET 0.000000 14.453000 0.000000
      CHANNELS 3 Yrotation Xrotation Zrotation
      JOINT Head
      {
       OFFSET 0.000000 8.936500 -0.011300
       CHANNELS 3 Yrotation Xrotation Zrotation
       End Site
       {
        OFFSET 0.000000 17.073600 -0.006000
       }
      }
     }
     JOINT RightCollar
     {
      OFFSET -2.921100 9.558500 0.000000
      CHANNELS 3 Yrotation Xrotation Zrotation
      JOINT RightShoulder
      {
       OFFSET -13.519700 0.000000 0.000000
       CHANNELS 3 Yrotation Xrotation Zrotation
       JOINT RightElbow
       {
        OFFSET 0.000000 -29.696600 0.000000
        CHANNELS 3 Yrotation Xrotation Zrotation
        JOINT RightWrist
        {
         OFFSET 0.000000 -24.004700 0.000000
         CHANNELS 3 Yrotation Xrotation Zrotation
         End Site
         {
          OFFSET 0.000000 -17.728500 0.000000
         }
        }
       }
      }
     }
     JOINT LeftCollar
     {
      OFFSET 2.921100 9.558500 0.000000
      CHANNELS 3 Yrotation Xrotation Zrotation
      JOINT LeftShoulder
      {
       OFFSET 13.519700 0.000000 0.000000
       CHANNELS 3 Yrotation Xrotation Zrotation
       JOINT LeftElbow
       {
        OFFSET 0.000000 -29.696600 0.000000
        CHANNELS 3 Yrotation Xrotation Zrotation
        JOINT LeftWrist
        {
         OFFSET 0.000000 -24.004700 0.000000
         CHANNELS 3 Yrotation Xrotation Zrotation
         End Site
         {
          OFFSET 0.000000 -17.728500 0.000000
         }
        }
       }
      }
     }
    }
   }
  }
 }
 JOINT RightHip
 {
  OFFSET -7.771700 -0.012900 -0.001300
  CHANNELS 3 Yrotation Xrotation Zrotation
  JOINT RightKnee
  {
   OFFSET 0.000000 -40.869800 0.001200
   CHANNELS 3 Yrotation Xrotation Zrotation
   JOINT RightAnkle
   {
    OFFSET 0.000000 -39.717900 0.002100
    CHANNELS 3 Yrotation Xrotation Zrotation
    JOINT RightToe
    {
     OFFSET 0.000000 -4.965400 11.033500
     CHANNELS 3 Yrotation Xrotation Zrotation
     End Site
     {
      OFFSET 0.000000 -1.423100 5.872300
     }
    }
   }
  }
 }
 JOINT LeftHip
 {
  OFFSET 7.771700 -0.012900 -0.001300
  CHANNELS 3 Yrotation Xrotation Zrotation
  JOINT LeftKnee
  {
   OFFSET 0.000000 -40.869800 0.001200
   CHANNELS 3 Yrotation Xrotation Zrotation
   JOINT LeftAnkle
   {
    OFFSET 0.000000 -39.717900 0.002100
    CHANNELS 3 Yrotation Xrotation Zrotation
    JOINT LeftToe
    {
     OFFSET 0.000000 -4.965400 11.033500
     CHANNELS 3 Yrotation Xrotation Zrotation
     End Site
     {
      OFFSET 0.000000 -1.423100 5.872300
     }
    }
   }
  }
 }
}
MOTION
Frames: 8
Frame Time: 0.008333
-190.819829 58.031227 28.950295 171.254070 -49.389987 -3.431479 5.185412 22.217695 3.603041 2.653066 12.730268 1.871393 3.400012 15.902974 2.453991 2.649847 12.729313 1.865652 1.828608 15.547375 5.261836 1.496821 -6.882081 9.145969 1.603914 3.834252 0.598796 4.626812 -13.898482 -11.763410 -72.799694 -61.577924 115.702730 -2.466180 8.540791 -28.868637 -9.957423 0.942277 -1.416821 -2.038027 -10.798314 15.677057 54.645536 -47.186732 -106.778332 7.718719 -7.880639 11.667496 3.504954 -23.315895 0.743717 -37.010156 73.313809 -38.175151 6.197404 -12.094228 8.967866 0.081737 -0.227409 0.033223 -1.358391 -21.810996 12.653227 52.069589 79.626906 51.916287 4.255988 -16.134806 -15.997791 0.063194 0.194941 0.021931
-190.820444 58.031172 28.949734 171.255966 -49.387226 -3.432084 5.190435 22.212487 3.604201 2.651156 12.731987 1.869328 3.396574 15.899367 2.453457 2.652743 12.730815 1.861671 1.827552 15.544746 5.261591 1.495278 -6.883124 9.150707 1.605649 3.823849 0.600097 4.595188 -13.867607 -11.756004 -72.831521 -61.591404 115.748358 -2.463614 8.556320 -28.872302 -9.965311 0.935359 -1.408122 -2.028174 -10.799404 15.677203 54.624431 -47.188626 -106.761434 7.697017 -7.865057 11.703897 3.504850 -23.318781 0.743879 -37.015517 73.311715 -38.181802 6.203702 -12.092970 8.965736 0.084607 -0.229150 0.035990 -1.358505 -21.813757 12.651526 52.069761 79.628367 51.918720 4.253641 -16.137287 -15.998468 0.065424 0.195118 0.023688
-190.820134 58.031142 28.949314 171.249813 -49.384387 -3.432515 5.197855 22.209002 3.609558 2.652520 12.732317 1.868475 3.398256 15.897190 2.448136 2.656985 12.731990 1.862358 1.824221 15.542451 5.266291 1.493657 -6.886073 9.150560 1.603024 3.815368 0.602162 4.581152 -13.853406 -11.748731 -72.828708 -61.604193 115.740073 -2.468266 8.554340 -28.861869 -9.975015 0.928753 -1.399221 -2.033504 -10.808815 15.680335 54.608465 -47.186494 -106.735326 7.655401 -7.832095 11.761473 3.507327 -23.323382 0.746908 -37.009816 73.311616 -38.174678 6.222818 -12.088929 8.962085 0.074367 -0.233733 0.035282 -1.356484 -21.815569 12.656791 52.074734 79.629692 51.925169 4.250706 -16.142754 -15.996510 0.067582 0.196231 0.024584
-190.820915 58.031143 28.948523 171.250170 -49.381740 -3.431669 5.201534 22.210057 3.608732 2.651398 12.729785 1.868576 3.402402 15.896896 2.445803 2.661922 12.731469 1.860139 1.818494 15.539652 5.272413 1.491631 -6.892023 9.146217 1.595142 3.811205 0.609584 4.568967 -13.842839 -11.747528 -72.794971 -61.626041 115.691348 -2.474207 8.529369 -28.830456 -9.985676 0.926498 -1.389527 -2.033203 -10.808998 15.680898 54.603076 -47.194699 -106.728711 7.644802 -7.817847 11.784206 3.507443 -23.325911 0.743520 -37.012949 73.313921 -38.174390 6.227043 -12.095448 8.958120 0.073681 -0.231211 0.034987 -1.352712 -21.818728 12.654561 52.090205 79.629402 51.941030 4.251383 -16.147275 -15.992158 0.063770 0.198539 0.022650
-190.822517 58.031110 28.947514 171.244095 -49.378950 -3.421637 5.208211 22.212200 3.602812 2.659730 12.728450 1.866722 3.401113 15.895457 2.446842 2.668052 12.727997 1.860422 1.818431 15.535417 5.266175 1.481994 -6.897345 9.156681 1.589448 3.806768 0.606298 4.540886 -13.819397 -11.737958 -72.811273 -61.634145 115.715411 -2.475677 8.519592 -28.831148 -9.998826 0.921874 -1.378385 -2.033903 -10.813244 15.681343 54.590661 -47.196561 -106.714682 7.633149 -7.806404 11.804123 3.513708 -23.329387 0.737182 -37.009881 73.319611 -38.174797 6.229116 -12.103576 8.963261 0.069009 -0.228767 0.031538 -1.347044 -21.820115 12.647692 52.095945 79.631056 51.947264 4.247610 -16.153793 -15.991696 0.067889 0.199882 0.023209
-190.823323 58.031277 28.946438 171.249270 -49.377146 -3.425603 5.215649 22.212086 3.604978 2.651973 12.726189 1.868263 3.410774 15.894613 2.443899 2.672980 12.728509 1.860211 1.809023 15.533288 5.274600 1.480502 -6.904859 9.154192 1.585039 3.804766 0.597891 4.508687 -13.794463 -11.719305 -72.847195 -61.640590 115.766992 -2.480035 8.517373 -28.845633 -10.012314 0.914339 -1.368470 -2.039445 -10.829722 15.688433 54.568973 -47.181047 -106.687932 7.614655 -7.796108 11.822681 3.511087 -23.329094 0.737017 -37.011163 73.319699 -38.176722 6.234222 -12.111359 8.967227 0.069169 -0.225602 0.028841 -1.352151 -21.822728 12.646649 52.109886 79.631726 51.960659 4.250505 -16.153355 -15.991665 0.067849 0.197901 0.023780
-190.823955 58.031175 28.945577 171.250808 -49.373539 -3.428856 5.218373 22.209287 3.607371 2.659567 12.725322 1.868052 3.415628 15.893631 2.445027 2.675249 12.729489 1.857216 1.806165 15.528135 5.279814 1.467220 -6.921141 9.152918 1.577231 3.805057 0.573015 4.477819 -13.775419 -11.678240 -72.869716 -61.659315 115.790618 -2.492870 8.481909 -28.879250 -10.014297 0.900102 -1.370133 -2.056863 -10.827364 15.706676 54.558748 -47.174250 -106.674250 7.594327 -7.785010 11.836105 3.510681 -23.333049 0.739252 -37.016418 73.320368 -38.181433 6.236107 -12.113972 8.969338 0.070377 -0.225226 0.027686 -1.353677 -21.826572 12.646977 52.127903 79.632229 51.979948 4.251549 -16.159267 -15.991933 0.068962 0.199919 0.024113
-190.824997 58.030693 28.944912 171.249567 -49.367536 -3.428526 5.221423 22.204815 3.607743 2.677393 12.726376 1.863411 3.425653 15.892049 2.443290 2.665761 12.726092 1.868292 1.802354 15.525119 5.279987 1.456346 -6.932943 9.159669 1.572094 3.806676 0.564135 4.453000 -13.754440 -11.654545 -72.887750 -61.674931 115.806985 -2.492797 8.443906 -28.886927 -10.020559 0.893759 -1.367141 -2.063962 -10.826847 15.715930 54.559344 -47.181501 -106.676016 7.582851 -7.769559 11.847003 3.512400 -23.339459 0.739546 -37.017157 73.320948 -38.181600 6.234577 -12.116271 8.970230 0.070853 -0.223850 0.027849 -1.354491 -21.833060 12.647814 52.124343 79.636097 51.975396 4.253716 -16.161090 -15.991454 0.068597 0.198489 0.025515
